<?xml version="1.0" standalone="no"?>
<!DOCTYPE svg PUBLIC "-//W3C//DTD SVG 20010904//EN"
 "http://www.w3.org/TR/2001/REC-SVG-20010904/DTD/svg10.dtd">
<svg version="1.0" xmlns="http://www.w3.org/2000/svg"
 width="720.000000pt" height="720.000000pt" viewBox="0 0 720.000000 720.000000"
 preserveAspectRatio="xMidYMid meet">
<metadata>
Created by potrace 1.11, written by Peter Selinger 2001-2013
</metadata>
<g transform="translate(0.000000,720.000000) scale(0.100000,-0.100000)"
fill="#000000" stroke="none">
<path d="M915 7163 c-3 -21 -9 -66 -12 -101 l-5 -63 28 3 c25 3 29 9 40 58 7
30 13 74 14 98 0 40 -1 42 -29 42 -25 0 -30 -4 -36 -37z"/>
<path d="M1600 7181 c0 -10 -10 -31 -22 -47 -22 -28 -23 -35 -20 -207 2 -97 8
-192 13 -210 5 -17 9 -82 9 -143 0 -125 6 -136 85 -162 22 -7 50 -18 63 -23
12 -5 33 -13 47 -19 14 -5 36 -14 50 -20 14 -5 35 -14 48 -20 12 -5 78 -27
147 -50 121 -40 156 -52 192 -71 10 -5 23 -9 28 -9 6 0 30 -9 52 -20 77 -37
77 -37 78 150 1 74 1 144 2 155 0 31 -21 321 -30 405 -10 84 -17 106 -38 114
-9 3 -13 10 -9 15 3 6 -7 18 -22 28 -15 10 -30 20 -33 23 -3 3 -25 16 -50 29
-25 14 -47 27 -50 31 -3 3 -26 16 -52 28 -40 19 -65 22 -162 22 -66 0 -117 4
-121 10 -3 6 -50 10 -106 10 -90 0 -99 -2 -99 -19z"/>
<path d="M2791 7184 c-9 -11 -14 -55 -17 -147 -2 -73 -7 -152 -12 -177 -9 -50
-5 -117 9 -126 14 -8 10 -64 -8 -119 -15 -45 -17 -121 -17 -752 l-1 -702 23
-11 c13 -5 79 -10 147 -10 l124 0 11 -42 c6 -24 13 -49 15 -56 8 -21 30 -8 33
19 7 62 39 99 86 99 29 0 36 -4 36 -20 0 -16 7 -20 33 -20 53 0 87 -21 87 -52
0 -16 4 -28 8 -28 23 0 32 -61 33 -235 1 -102 6 -185 10 -185 5 0 9 18 9 40 0
22 5 40 10 40 6 0 10 12 10 26 0 44 23 154 32 154 4 0 8 10 8 23 0 12 7 40 16
62 8 22 17 48 21 58 3 9 10 17 17 17 15 0 84 -25 92 -33 10 -10 36 22 30 38
-3 9 -19 15 -39 15 -18 0 -45 6 -60 13 -25 11 -27 15 -22 52 7 44 27 107 36
115 3 3 8 14 12 25 3 11 13 39 21 62 12 31 13 49 6 68 -19 51 -12 71 50 135
39 41 57 66 49 70 -16 11 4 45 39 65 16 10 32 27 38 39 5 11 19 25 32 31 12 5
22 13 22 17 0 5 12 8 26 8 14 0 34 5 45 11 15 7 24 7 35 -2 11 -9 14 -8 14 10
0 28 27 27 52 -1 15 -17 21 -19 27 -9 6 9 11 10 15 2 4 -6 32 -11 63 -11 59 0
162 -14 228 -32 50 -13 379 -12 405 2 28 15 82 12 107 -5 13 -9 23 -28 25 -48
2 -26 8 -33 28 -35 34 -5 47 -17 54 -52 3 -17 10 -30 16 -30 20 0 40 -28 40
-54 0 -14 5 -26 10 -26 6 0 10 -13 10 -30 0 -16 5 -30 10 -30 6 0 10 -9 10
-20 0 -11 5 -20 10 -20 6 0 10 -15 10 -33 0 -18 4 -37 10 -43 5 -5 11 -33 14
-62 2 -29 7 -56 10 -59 3 -4 6 -15 6 -25 0 -10 3 -18 8 -18 17 0 62 -164 48
-177 -7 -7 -81 32 -110 59 -11 10 -26 18 -33 18 -7 0 -13 5 -13 10 0 6 -24 10
-53 10 -29 0 -57 4 -63 10 -13 13 -137 27 -199 23 -127 -9 -153 -17 -167 -54
-16 -41 -258 -39 -258 1 0 14 -25 40 -37 40 -5 0 -29 9 -53 21 -29 14 -68 22
-119 24 -124 6 -134 5 -151 -10 -11 -10 -38 -15 -78 -15 -64 0 -87 -14 -59
-35 10 -7 17 -20 17 -30 0 -15 8 -17 70 -13 46 2 69 0 67 -7 -2 -5 -20 -11
-40 -13 -20 -2 -37 -6 -37 -10 0 -4 -21 -14 -47 -21 -27 -7 -54 -15 -61 -17
-7 -2 -12 -14 -10 -26 4 -29 37 -35 91 -17 33 11 51 10 120 -4 102 -21 107
-21 107 1 0 28 10 33 29 15 11 -12 13 -17 3 -21 -26 -8 -10 -22 28 -22 33 0
40 3 40 20 0 13 7 20 20 20 11 0 20 5 20 10 0 6 -4 10 -10 10 -5 0 -10 9 -10
19 0 11 -5 21 -12 23 -6 2 -9 9 -6 14 4 5 30 7 60 4 49 -5 53 -7 56 -34 4 -36
-16 -86 -34 -86 -12 0 -34 -37 -34 -56 0 -2 13 -4 30 -4 24 0 31 5 36 27 4 15
14 34 21 42 8 7 17 26 20 42 6 33 40 44 100 33 51 -9 63 -20 63 -60 0 -18 5
-36 10 -39 6 -3 10 -19 10 -35 0 -16 5 -32 10 -35 6 -3 10 -22 10 -40 0 -38
27 -93 65 -131 26 -26 32 -44 14 -44 -21 0 -39 -29 -39 -64 0 -28 4 -36 18
-36 28 0 42 -20 42 -60 0 -34 -3 -38 -40 -49 -23 -7 -63 -25 -91 -42 -51 -30
-83 -36 -94 -19 -11 18 -34 10 -37 -12 -3 -20 -9 -23 -46 -23 -31 0 -41 -4
-37 -13 3 -8 5 -16 5 -18 0 -2 18 -4 40 -4 22 0 40 -4 40 -9 0 -4 19 -11 43
-14 23 -4 62 -11 87 -17 25 -6 60 -14 78 -17 67 -11 25 -28 -88 -37 -127 -9
-172 -29 -93 -40 25 -3 65 -6 89 -6 24 0 44 -5 47 -12 4 -10 8 -10 15 1 13 18
34 9 51 -22 12 -23 11 -29 -8 -56 -19 -26 -20 -31 -6 -31 9 0 26 5 37 11 14 8
23 8 31 0 16 -16 28 -13 25 6 -2 12 4 18 17 18 11 0 27 5 35 10 39 26 65 35
97 35 23 0 42 8 59 26 25 24 26 35 9 77 -5 12 -3 17 8 17 11 0 13 10 9 47 -5
49 -10 55 -134 169 -49 45 -80 85 -106 133 -28 55 -18 71 45 71 27 0 42 4 38
10 -3 6 -17 10 -30 10 -13 0 -27 5 -30 10 -3 6 -13 10 -20 10 -8 0 -23 7 -34
16 -20 18 -20 19 27 69 27 30 27 33 1 61 l-21 23 25 25 c30 30 37 32 37 12 0
-9 21 -17 63 -24 115 -20 147 -29 188 -56 35 -23 46 -26 77 -19 19 5 37 13 39
18 1 6 -17 32 -42 60 -25 27 -45 53 -45 57 0 4 -20 17 -45 28 -25 11 -45 22
-45 25 0 5 61 -17 123 -45 33 -15 57 -19 77 -15 32 7 40 31 18 53 -9 9 -8 12
4 12 9 0 19 -7 22 -16 10 -26 7 -164 -4 -164 -5 0 -10 -13 -10 -28 0 -15 -5
-33 -12 -40 -7 -7 -8 -12 -4 -12 15 0 35 34 36 58 0 12 5 22 10 22 6 0 10 17
10 38 1 38 23 92 32 76 3 -5 6 -36 7 -69 2 -33 7 -68 13 -79 11 -21 5 -124
-12 -201 -6 -27 -14 -68 -17 -90 -3 -22 -9 -44 -14 -49 -5 -6 -9 -28 -9 -51 0
-23 -4 -45 -9 -50 -5 -6 -11 -41 -14 -80 -5 -83 -20 -142 -41 -163 -13 -14
-16 -12 -27 11 -7 15 -16 27 -21 27 -4 0 -8 5 -8 10 0 6 7 10 15 10 8 0 15 5
15 10 0 6 11 10 25 10 14 0 25 5 25 10 0 6 -20 10 -44 10 -36 0 -46 -4 -51
-20 -3 -11 -11 -20 -16 -20 -5 0 -9 -6 -9 -13 0 -12 -34 -47 -46 -47 -22 0
-69 -83 -58 -101 6 -11 45 -12 43 -1 -3 18 2 30 16 36 12 4 14 0 9 -21 -14
-55 -84 -95 -84 -48 0 10 -9 15 -26 15 -19 0 -25 -4 -20 -15 3 -9 -1 -18 -9
-21 -8 -4 -15 -15 -15 -25 0 -10 -6 -19 -13 -19 -8 0 -20 -12 -28 -27 -8 -16
-16 -30 -19 -33 -15 -15 -30 -53 -30 -78 0 -16 -9 -38 -20 -50 -11 -12 -20
-28 -20 -37 0 -8 -8 -15 -17 -15 -10 0 -26 -14 -35 -30 -9 -17 -23 -30 -31
-30 -8 0 -22 -9 -32 -20 -10 -11 -22 -17 -26 -14 -5 3 -12 -1 -15 -9 -3 -9
-20 -21 -37 -28 -18 -7 -37 -18 -44 -25 -15 -15 -97 -27 -123 -19 -11 4 -34
-1 -52 -9 -50 -25 -90 -22 -210 20 -10 4 -18 10 -18 15 0 5 -7 9 -15 9 -8 0
-38 25 -67 56 -29 30 -66 62 -81 70 -16 9 -43 29 -60 46 -34 32 -67 53 -67 42
0 -12 41 -74 49 -74 4 0 30 -22 57 -48 27 -26 65 -59 84 -72 51 -36 69 -51
104 -89 111 -120 144 -149 182 -155 22 -4 55 -9 74 -13 33 -5 49 -17 50 -35 0
-5 -4 -8 -10 -8 -14 0 -120 -112 -120 -127 0 -14 -13 -17 -82 -13 -53 2 -66
-15 -20 -26 29 -7 47 -23 75 -66 13 -20 26 -28 47 -28 25 0 30 -4 30 -24 0
-19 -11 -30 -52 -51 -48 -25 -58 -27 -133 -21 -116 9 -165 17 -165 27 0 5 -7
9 -15 9 -9 0 -35 9 -57 20 -23 11 -48 20 -55 20 -7 0 -13 4 -13 8 0 5 -12 15
-27 23 -45 23 -194 161 -233 215 -40 55 -99 172 -100 197 0 9 -4 17 -10 17 -5
0 -10 13 -10 28 0 15 -5 33 -11 39 -13 13 -13 397 1 423 5 10 10 35 10 54 0
20 5 36 10 36 6 0 10 14 10 30 0 17 5 30 10 30 6 0 10 8 10 18 0 10 5 23 11
29 11 11 -4 75 -23 97 -4 6 -8 53 -9 105 -1 142 -20 249 -36 204 -7 -20 -87
-16 -104 5 -22 26 -39 60 -39 75 0 8 -8 29 -17 47 -16 33 -24 65 -42 163 -11
65 -27 81 -69 66 -19 -6 -48 -8 -70 -4 -38 7 -136 10 -207 5 -90 -5 -615 13
-615 22 0 6 -23 7 -57 3 -130 -14 -268 -16 -304 -4 -43 13 -46 20 -88 154 -36
115 -39 150 -13 160 28 12 344 15 358 4 8 -6 20 -7 31 -2 10 5 56 7 103 3 47
-3 99 -2 115 3 l30 9 -2 436 -1 436 -44 16 c-23 8 -44 18 -46 23 -2 4 -12 7
-22 7 -10 0 -22 5 -25 10 -3 6 -17 10 -31 10 -13 0 -24 5 -24 10 0 6 -10 10
-23 10 -13 0 -27 4 -33 8 -5 4 -27 14 -49 21 -22 7 -50 17 -62 22 -13 5 -33
13 -45 18 -13 5 -41 15 -63 22 -22 7 -44 17 -49 21 -6 4 -18 8 -28 8 -10 0
-26 4 -36 9 -61 31 -177 42 -200 19 -8 -8 -12 -68 -12 -203 0 -106 -3 -195 -7
-199 -33 -32 -38 -296 -10 -518 18 -147 31 -192 69 -232 16 -16 24 -34 20 -40
-4 -6 -10 -56 -14 -111 -7 -100 -18 -208 -38 -363 -5 -45 -14 -118 -20 -162
-5 -44 -15 -117 -20 -162 -12 -91 -25 -210 -39 -333 -5 -44 -11 -93 -14 -110
-3 -16 -8 -58 -11 -92 -5 -50 -3 -63 9 -63 16 0 88 40 93 52 2 4 10 8 18 8 8
0 24 9 36 20 12 11 28 20 35 20 7 0 13 5 13 10 0 6 5 10 11 10 6 0 8 -7 5 -15
-5 -13 0 -15 29 -9 19 3 35 3 35 0 0 -15 -57 -55 -78 -56 -12 0 -30 -4 -40 -9
-9 -5 -39 -19 -67 -32 -27 -13 -52 -27 -55 -30 -3 -3 -29 -12 -59 -19 -48 -11
-64 -23 -145 -104 -50 -50 -98 -103 -105 -118 -8 -16 -18 -28 -23 -28 -4 0 -8
-9 -8 -19 0 -11 -3 -21 -7 -23 -11 -4 -53 -87 -53 -103 0 -7 -3 -15 -8 -17 -4
-1 -22 -50 -41 -108 -18 -58 -37 -113 -42 -122 -5 -10 -9 -27 -9 -37 0 -11 -4
-22 -9 -25 -8 -6 -11 -20 -27 -123 -3 -24 -9 -43 -13 -43 -3 0 -17 -36 -31
-80 -14 -44 -28 -80 -32 -80 -5 0 -8 -9 -8 -19 0 -11 -5 -23 -10 -26 -6 -3
-10 -17 -10 -30 0 -13 -4 -27 -10 -30 -5 -3 -10 -15 -10 -26 0 -10 -4 -27 -9
-37 -16 -31 -29 -66 -42 -107 -6 -22 -15 -48 -20 -57 -5 -10 -9 -26 -9 -36 0
-10 -4 -22 -9 -27 -5 -6 -12 -30 -15 -55 -15 -103 -19 -119 -37 -139 -10 -11
-19 -28 -19 -37 0 -20 -18 -80 -31 -106 -5 -10 -9 -23 -9 -30 0 -17 67 -78 85
-78 8 0 15 -4 15 -10 0 -5 9 -10 20 -10 11 0 20 -4 20 -9 0 -5 15 -14 33 -21
17 -6 40 -16 49 -21 10 -5 29 -9 42 -9 14 0 38 -5 53 -11 57 -23 70 -27 145
-50 43 -13 78 -27 78 -31 0 -5 11 -8 24 -8 14 0 28 -5 31 -10 3 -6 16 -10 27
-10 12 0 35 -4 52 -10 67 -21 200 -52 281 -65 22 -3 56 -10 75 -15 19 -5 47
-11 61 -14 25 -5 26 -8 19 -44 -8 -46 -16 -61 -47 -85 -25 -20 -30 -56 -13
-88 6 -10 7 -19 3 -19 -10 0 -37 -57 -40 -85 -14 -104 -31 -191 -43 -220 -5
-11 -10 -31 -12 -45 -2 -19 -10 -26 -31 -28 -22 -3 -27 -7 -22 -23 4 -11 2
-19 -4 -19 -13 0 -15 -36 -3 -44 12 -7 2 -74 -13 -86 -7 -6 -11 -19 -8 -29 3
-10 0 -22 -6 -25 -6 -4 -11 -17 -11 -30 0 -13 -9 -31 -20 -41 -11 -10 -20 -27
-20 -37 0 -40 -56 -108 -89 -108 -10 0 -46 27 -80 60 -42 41 -70 60 -87 60
-21 0 -24 4 -19 20 6 18 2 20 -37 20 -37 0 -45 -4 -55 -26 -10 -22 -9 -29 4
-42 14 -14 14 -17 -3 -30 -13 -10 -15 -16 -6 -19 6 -3 12 -10 12 -17 0 -7 14
-23 31 -35 24 -18 28 -25 18 -32 -8 -5 -22 -6 -32 -3 -22 7 -22 -9 1 -28 28
-23 66 -36 93 -31 19 3 27 -2 37 -26 8 -17 20 -31 28 -31 18 0 54 -20 75 -42
9 -10 31 -24 50 -32 19 -8 48 -26 64 -40 17 -14 36 -26 43 -26 6 0 12 -4 12
-9 0 -5 14 -14 30 -21 17 -7 30 -16 30 -21 0 -5 6 -9 13 -9 6 0 23 -9 37 -20
25 -19 53 -20 1668 -20 l1642 0 0 31 c0 16 -5 51 -12 76 -8 35 -8 50 0 64 7
10 12 26 12 34 0 8 3 15 8 15 4 0 18 35 31 78 13 42 28 81 33 86 4 6 8 18 8
28 0 10 4 26 9 36 8 16 18 50 40 140 21 84 30 119 41 159 7 23 10 56 6 75 -15
72 -18 118 -7 118 6 0 11 6 11 14 0 7 25 40 55 72 30 33 63 71 72 87 10 15 21
27 25 27 4 0 8 6 8 13 0 6 14 28 30 47 16 19 30 40 30 45 0 6 9 17 20 25 11 8
20 19 20 25 0 5 20 32 45 58 24 27 47 57 50 68 4 10 11 19 16 19 5 0 9 9 9 20
0 11 5 20 10 20 6 0 10 7 10 15 0 9 11 27 25 41 22 22 27 23 40 10 10 -9 15
-34 15 -69 0 -34 5 -57 12 -59 8 -3 12 -45 13 -144 1 -76 4 -146 8 -154 3 -8
8 -40 11 -70 7 -79 21 -158 30 -167 4 -5 5 19 1 52 -17 151 -4 400 23 427 7 7
59 16 120 20 355 26 442 35 547 57 28 6 77 16 110 21 120 20 147 26 226 56 22
8 45 92 31 114 -10 17 -21 214 -12 224 3 3 23 1 45 -4 22 -5 113 -10 203 -10
129 0 166 3 178 14 12 12 14 107 14 605 0 556 -1 591 -17 591 -10 0 -30 -6
-45 -14 -53 -28 -138 -39 -178 -23 -81 32 -133 47 -158 47 -12 0 -22 5 -22 10
0 6 -46 10 -118 10 l-119 0 -12 28 c-8 15 -17 35 -22 44 -5 10 -9 25 -9 33 0
8 -4 15 -9 15 -5 0 -11 13 -14 29 -3 16 -13 36 -22 44 -10 11 -15 35 -15 75 0
59 -17 92 -48 92 -12 0 -83 38 -92 49 -3 3 -16 12 -30 20 -45 24 -109 76 -107
85 2 4 224 8 495 7 290 0 502 3 517 9 l25 10 0 590 0 590 -27 7 c-33 8 -138 8
-955 1 l-618 -6 0 29 c0 16 5 29 10 29 6 0 10 7 10 15 0 9 9 33 20 55 26 51
25 68 -2 73 -22 3 -22 4 -3 12 11 4 33 22 48 39 22 23 27 37 23 58 -4 22 -2
28 12 28 9 0 214 2 456 4 281 3 442 8 448 14 21 21 1 41 -36 38 -27 -2 -36 1
-36 12 0 8 -9 23 -21 32 -18 16 -23 17 -46 5 -15 -8 -30 -12 -34 -9 -13 8 2
33 16 28 7 -3 16 0 21 7 4 8 3 10 -5 5 -6 -4 -19 -2 -28 6 -12 9 -15 9 -9 1
12 -21 -9 -15 -29 7 -10 12 -25 18 -32 16 -7 -3 -13 -1 -13 5 0 6 -4 7 -10 4
-5 -3 -10 1 -10 9 0 9 5 16 11 16 7 0 10 22 7 62 -3 55 -1 61 17 65 11 1 113
6 227 9 242 6 249 4 255 -70 2 -24 -1 -47 -6 -51 -6 -3 -11 -32 -11 -63 0 -41
-3 -53 -10 -42 -8 12 -10 11 -10 -7 0 -12 6 -23 12 -25 10 -4 8 -9 -3 -21 -9
-9 -19 -14 -22 -11 -2 3 -7 -4 -10 -16 -4 -17 0 -20 26 -21 342 -9 338 -10
355 8 12 12 13 18 4 21 -9 3 -12 41 -12 141 l0 138 -42 19 c-23 10 -57 34 -75
51 -18 18 -39 33 -48 33 -8 0 -15 4 -15 9 0 6 -74 10 -181 10 -110 0 -195 5
-216 12 -23 7 -69 9 -137 4 -150 -10 -182 -9 -281 7 -135 22 -405 13 -405 -13
0 -5 -4 -9 -8 -9 -5 0 -19 33 -32 73 -22 71 -59 157 -71 167 -3 3 -9 17 -12
32 -6 23 -3 27 25 37 46 16 308 14 407 -4 97 -17 178 -11 233 16 21 11 44 19
53 19 24 0 95 24 95 32 0 5 -9 8 -20 8 -13 0 -20 7 -20 20 0 11 -7 20 -15 20
-9 0 -20 10 -25 23 -5 12 -9 18 -9 14 -1 -4 -12 4 -26 18 -14 14 -30 25 -35
25 -6 0 -10 7 -10 15 0 19 -40 65 -56 65 -7 0 -15 9 -19 19 -3 10 -18 31 -33
46 -15 15 -27 32 -28 38 0 7 -2 20 -2 30 -2 19 -41 24 -70 8 -9 -5 -39 -11
-66 -14 -27 -4 -52 -10 -55 -15 -3 -5 -25 -12 -49 -16 -23 -3 -76 -18 -117
-31 -75 -26 -139 -32 -150 -16 -3 6 -23 10 -44 9 -77 -1 -161 35 -161 69 0 7
-4 13 -10 13 -5 0 -10 7 -10 16 0 9 -13 29 -30 44 -16 15 -30 32 -30 37 0 4
-14 22 -30 40 -60 64 -65 63 284 63 199 0 317 -4 321 -10 3 -5 21 -10 38 -10
18 0 41 -7 52 -15 12 -10 30 -13 52 -9 26 5 33 3 33 -10 0 -9 -8 -16 -20 -16
-27 0 -26 -31 1 -48 12 -7 24 -11 27 -8 3 3 -1 6 -8 6 -9 0 -7 5 6 16 10 8 13
12 5 8 -9 -5 -12 -3 -7 4 4 7 13 12 21 12 7 0 16 8 19 18 14 42 27 44 446 54
79 2 190 -11 207 -25 8 -5 37 -7 70 -2 32 3 103 8 158 11 113 4 125 7 125 29
0 8 5 15 10 15 19 0 10 51 -12 75 -18 18 -37 25 -83 28 -33 3 -134 11 -225 18
-105 9 -279 13 -480 11 -564 -5 -1403 -5 -1483 1 -43 3 -84 10 -91 16 -7 6
-65 10 -143 9 -119 0 -134 2 -161 21 -22 15 -45 21 -85 21 -31 0 -59 5 -62 10
-3 6 -44 10 -90 10 -46 0 -87 -4 -90 -10 -9 -15 -75 -12 -91 5 -23 22 -22 114
0 131 13 9 24 10 41 2 17 -7 33 -7 56 1 17 6 43 11 55 11 13 0 24 4 24 9 0 9
-41 18 -125 28 -50 5 -69 18 -60 40 2 7 -2 10 -12 6 -12 -5 -14 -1 -8 17 5 15
4 20 -4 16 -6 -4 -15 3 -20 16 l-10 23 0 -24 c-1 -13 -13 -45 -28 -72 -19 -36
-23 -53 -15 -61 8 -8 5 -19 -11 -42 -12 -17 -24 -33 -27 -36 -3 -3 -12 -24
-20 -48 -7 -24 -23 -48 -34 -55 -41 -23 -92 -37 -133 -37 -32 0 -46 -5 -55
-20 -15 -23 -34 -26 -54 -6 -22 22 -50 8 -69 -35 -15 -32 -23 -39 -47 -39 -42
0 -98 -33 -98 -58 0 -38 -69 -121 -102 -122 -9 0 -20 -4 -23 -10 -3 -5 -20
-10 -37 -10 -23 0 -29 4 -24 16 12 32 17 212 8 299 -5 50 -17 116 -26 148 -11
41 -16 100 -16 203 0 113 -3 149 -14 160 -22 21 -395 20 -415 -2z m3050 -1723
c15 -12 15 -19 4 -62 -7 -27 -11 -58 -8 -69 3 -11 -2 -27 -11 -36 -20 -19 -91
-31 -100 -16 -10 17 15 154 33 179 18 25 55 27 82 4z m575 -182 c12 -12 20
-27 17 -35 -7 -20 -23 -7 -17 14 5 16 5 16 -6 0 -15 -24 -27 -23 -35 2 -6 20
0 40 12 40 4 0 17 -9 29 -21z m-2934 -214 c0 -5 -5 -11 -11 -13 -6 -2 -11 4
-11 13 0 9 5 15 11 13 6 -2 11 -8 11 -13z m1996 -163 c3 -19 -1 -22 -32 -22
-41 0 -43 3 -18 29 22 25 46 22 50 -7z m-98 -177 c0 -63 -5 -127 -11 -142 -25
-61 -42 -100 -64 -148 -13 -27 -29 -68 -37 -90 -16 -50 -30 -65 -61 -65 -29 0
-35 20 -29 92 3 34 12 55 33 79 16 18 29 35 29 38 0 4 13 12 29 19 61 27 99
190 51 220 -11 7 -20 19 -20 27 0 16 58 83 73 84 4 1 7 -51 7 -114z m1721 55
c22 -12 26 -40 6 -40 -8 0 -28 -7 -46 -16 -37 -18 -120 -11 -158 13 -38 25 -7
42 83 46 44 1 83 4 87 5 5 1 17 -3 28 -8z m-2537 -36 c7 -18 0 -34 -15 -34 -5
0 -9 11 -9 25 0 28 15 34 24 9z m496 -744 c0 -13 -7 -20 -20 -20 -23 0 -25 5
-7 25 17 20 27 18 27 -5z m-2887 -37 c-7 -2 -19 -2 -25 0 -7 3 -2 5 12 5 14 0
19 -2 13 -5z m-233 -69 c0 -15 -107 -94 -126 -94 -3 0 -1 12 2 26 6 23 4 25
-15 19 -12 -4 -21 -2 -21 4 0 6 8 11 18 12 37 1 56 8 64 23 9 15 78 24 78 10z
m-180 -64 c0 -5 -4 -10 -10 -10 -5 0 -10 5 -10 10 0 6 5 10 10 10 6 0 10 -4
10 -10z m65 -59 c-3 -6 -14 -11 -23 -11 -15 1 -15 2 2 15 21 16 32 13 21 -4z
m971 -8 c-10 -10 -19 5 -10 18 6 11 8 11 12 0 2 -7 1 -15 -2 -18z m2047 -215
c-7 -148 -48 -311 -95 -373 -78 -104 -95 -120 -126 -119 -21 0 -32 -5 -32 -14
0 -7 5 -10 10 -7 6 3 10 1 10 -4 0 -20 -18 -11 -47 22 -15 19 -43 42 -60 53
-32 18 -43 34 -23 34 6 0 10 9 10 20 0 16 -7 20 -30 20 -23 0 -30 5 -30 19 0
11 -5 21 -11 23 -13 4 31 92 65 131 35 39 96 53 159 36 24 -7 27 -5 27 19 0
23 35 86 68 120 6 7 12 19 12 27 0 12 83 105 94 105 3 0 2 -51 -1 -112z"/>
<path d="M5263 4465 c-8 -23 4 -30 22 -12 19 20 19 27 0 27 -9 0 -18 -7 -22
-15z"/>
<path d="M4500 7051 c0 -5 6 -12 13 -15 8 -3 7 -8 -5 -16 -21 -13 -25 -52 -5
-44 7 2 13 -4 14 -15 1 -13 -3 -18 -12 -15 -15 6 -49 -49 -38 -60 4 -3 26 -6
50 -6 31 0 45 5 50 16 6 17 -15 36 -30 27 -5 -3 -6 4 -2 16 3 11 2 21 -3 21
-5 0 -8 17 -6 37 1 20 0 43 -3 50 -6 15 -23 18 -23 4z"/>
<path d="M4360 6890 c0 -5 9 -10 20 -10 11 0 20 5 20 10 0 6 -9 10 -20 10 -11
0 -20 -4 -20 -10z"/>
<path d="M875 6863 c-5 -10 -12 -43 -16 -73 -41 -264 -54 -361 -78 -575 -5
-49 -13 -107 -17 -127 -5 -30 -3 -39 9 -44 25 -9 44 18 51 72 11 98 33 240 57
364 13 70 24 144 37 248 6 45 14 87 18 93 10 16 -17 59 -37 59 -9 0 -20 -8
-24 -17z"/>
<path d="M2600 6872 c0 -5 6 -17 14 -28 17 -23 41 -8 30 19 -6 17 -44 24 -44
9z"/>
<path d="M116 6818 c-3 -24 -10 -70 -15 -103 -5 -33 -15 -94 -21 -135 -6 -41
-15 -100 -20 -130 -5 -30 -13 -91 -19 -135 -6 -44 -13 -90 -17 -102 -7 -24 15
-113 28 -113 4 0 8 -6 8 -14 0 -23 31 -29 37 -6 3 12 18 23 36 28 l31 8 -2
349 c0 235 -4 351 -11 353 -6 2 -11 12 -11 23 0 37 -18 19 -24 -23z"/>
<path d="M1025 6474 c-3 -16 -8 -38 -11 -49 -3 -11 -10 -53 -15 -92 -5 -40
-13 -106 -18 -145 -5 -40 -13 -89 -16 -109 -6 -28 -4 -37 9 -42 28 -11 44 3
50 46 3 23 10 76 15 117 16 116 18 277 4 291 -9 9 -13 5 -18 -17z"/>
<path d="M1366 6403 c-11 -11 -7 -243 4 -243 6 0 10 -5 10 -12 0 -26 32 -94
49 -105 16 -10 17 -6 14 46 -4 71 -10 122 -23 191 -6 30 -13 69 -16 87 -6 30
-25 49 -38 36z"/>
<path d="M6948 6075 c-14 -13 -29 -21 -32 -18 -3 4 -6 -8 -6 -26 0 -19 -4 -30
-10 -26 -6 4 -10 -7 -9 -27 0 -27 2 -30 9 -13 8 19 9 19 9 -3 1 -22 3 -22 121
-21 66 0 122 5 126 10 3 5 1 9 -5 9 -5 0 -9 10 -9 23 1 12 1 41 0 65 -2 36 -4
41 -16 30 -8 -7 -10 -16 -4 -19 5 -3 1 -12 -8 -20 -12 -9 -15 -10 -10 -1 4 6
2 12 -3 12 -6 0 -10 3 -10 8 4 24 -4 33 -11 12 -8 -24 -8 -24 -9 -2 -1 23 -21
32 -21 10 0 -9 -4 -8 -10 2 -6 10 -10 11 -10 3 0 -18 -37 -16 -47 2 -7 12 -13
11 -35 -10z"/>
<path d="M2612 5900 c15 -24 43 -27 34 -4 -3 9 -6 18 -6 20 0 2 -9 4 -20 4
-18 0 -19 -2 -8 -20z"/>
<path d="M746 5888 c-26 -94 -32 -121 -46 -233 -5 -38 -14 -104 -20 -145 -17
-122 -31 -221 -40 -290 -4 -36 -13 -105 -19 -154 -11 -86 -8 -126 8 -126 23 0
36 39 51 155 5 39 14 99 19 135 5 36 15 101 21 145 16 120 29 212 41 285 5 36
12 104 15 153 5 76 4 87 -10 87 -9 0 -18 -6 -20 -12z"/>
<path d="M936 5863 c-3 -21 -10 -69 -16 -108 -9 -65 -14 -104 -40 -285 -5 -38
-14 -101 -20 -140 -5 -38 -14 -101 -20 -140 -5 -38 -14 -102 -19 -141 -12 -93
-1 -132 26 -96 21 25 25 50 93 547 5 36 14 94 19 130 21 143 30 236 25 253 -3
9 -14 17 -24 17 -13 0 -19 -10 -24 -37z"/>
<path d="M496 5638 c-4 -13 -11 -53 -17 -90 -10 -76 -26 -186 -39 -268 -45
-288 -46 -306 -25 -326 30 -30 37 -9 65 186 5 36 14 99 19 140 6 41 15 109 21
150 21 144 27 205 22 218 -7 20 -39 13 -46 -10z"/>
<path d="M6832 5290 c0 -14 2 -19 5 -12 2 6 2 18 0 25 -3 6 -5 1 -5 -13z"/>
<path d="M6673 5153 c9 -2 25 -2 35 0 9 3 1 5 -18 5 -19 0 -27 -2 -17 -5z"/>
<path d="M0 5076 c0 -44 4 -76 10 -76 6 0 10 -10 10 -22 0 -37 27 -103 42
-103 7 0 21 -16 31 -35 l19 -35 -7 50 c-4 28 -11 54 -16 60 -5 5 -9 22 -9 37
0 15 -4 28 -10 28 -5 0 -10 14 -10 30 0 17 -4 30 -10 30 -5 0 -10 14 -10 30 0
17 -4 30 -10 30 -5 0 -10 9 -10 19 0 11 -4 23 -10 26 -6 4 -10 -22 -10 -69z"/>
<path d="M3146 5084 c-10 -25 -7 -74 4 -74 6 0 10 10 10 23 0 12 9 28 20 35
12 7 18 17 15 22 -10 16 -42 12 -49 -6z"/>
<path d="M3340 4910 c0 -5 5 -10 10 -10 6 0 10 5 10 10 0 6 -4 10 -10 10 -5 0
-10 -4 -10 -10z"/>
<path d="M4220 4770 c0 -5 5 -10 10 -10 6 0 10 5 10 10 0 6 -4 10 -10 10 -5 0
-10 -4 -10 -10z"/>
<path d="M3915 4670 c-4 -6 6 -10 22 -10 22 0 25 2 13 10 -19 12 -27 12 -35 0z"/>
<path d="M4080 4670 c0 -5 11 -10 25 -10 14 0 25 5 25 10 0 6 -11 10 -25 10
-14 0 -25 -4 -25 -10z"/>
<path d="M4895 4610 c-4 -6 8 -10 29 -10 19 0 38 5 41 10 4 6 -8 10 -29 10
-19 0 -38 -4 -41 -10z"/>
<path d="M3920 4470 c0 -5 -9 -10 -20 -10 -11 0 -20 -4 -20 -10 0 -5 -6 -10
-13 -10 -7 0 -23 -9 -35 -20 -12 -11 -25 -20 -30 -20 -5 0 -31 -20 -58 -46
-48 -44 -49 -46 -49 -103 1 -46 18 -131 31 -150 6 -7 34 28 34 41 0 8 5 19 12
26 14 14 48 16 48 4 0 -5 12 -15 28 -23 15 -8 34 -22 43 -31 20 -22 38 -23 53
-3 6 8 31 19 56 24 25 4 38 10 30 13 -66 22 -92 28 -126 28 -22 0 -57 9 -79
20 -28 15 -41 17 -46 8 -6 -9 -11 -9 -23 1 -22 19 -20 58 4 71 11 6 20 17 20
25 0 7 9 16 19 20 21 6 161 135 161 148 0 4 -9 7 -20 7 -11 0 -20 -4 -20 -10z"/>
<path d="M4093 4006 c-15 -17 -7 -26 24 -26 13 0 23 -4 23 -10 0 -5 23 -10 50
-10 28 0 50 -4 50 -10 0 -6 30 -10 69 -10 39 0 73 5 76 10 3 6 28 10 55 10 58
0 80 7 80 26 0 10 -14 14 -50 14 -27 0 -50 -4 -50 -10 0 -6 -43 -10 -110 -10
-67 0 -110 4 -110 10 0 6 -15 10 -34 10 -19 0 -38 5 -41 10 -8 13 -18 12 -32
-4z"/>
<path d="M4660 3969 c0 -5 5 -7 10 -4 6 3 10 8 10 11 0 2 -4 4 -10 4 -5 0 -10
-5 -10 -11z"/>
<path d="M3525 3910 c3 -5 8 -10 11 -10 2 0 4 5 4 10 0 6 -5 10 -11 10 -5 0
-7 -4 -4 -10z"/>
<path d="M4447 3874 c-4 -4 -4 -10 -1 -15 6 -10 34 0 34 12 0 10 -24 12 -33 3z"/>
<path d="M3580 3835 c0 -11 51 -57 57 -52 3 3 -6 17 -20 31 -25 25 -37 32 -37
21z"/>
<path d="M4397 3774 c-10 -10 4 -34 20 -34 14 0 43 23 43 34 0 8 -55 8 -63 0z"/>
<path d="M4300 3750 c0 -5 9 -10 20 -10 11 0 20 5 20 10 0 6 -9 10 -20 10 -11
0 -20 -4 -20 -10z"/>
<path d="M1 3573 c-1 -43 3 -73 9 -73 6 0 10 -9 10 -20 0 -11 9 -28 20 -37 11
-10 20 -23 20 -30 0 -7 5 -13 10 -13 12 0 13 12 1 42 -5 13 -14 43 -21 68 -12
45 -19 65 -38 110 -9 21 -11 13 -11 -47z"/>
<path d="M180 2903 c0 -111 4 -204 9 -207 11 -7 11 378 0 396 -5 7 -9 -75 -9
-189z"/>
<path d="M6930 3070 c-13 -8 -12 -10 3 -10 11 0 32 -9 48 -21 l30 -21 19 22
c11 13 17 27 14 31 -7 12 -95 11 -114 -1z"/>
<path d="M0 2071 c0 -49 4 -92 9 -96 5 -3 13 -30 16 -60 5 -35 12 -55 20 -55
7 0 15 6 18 13 3 10 21 -21 41 -73 3 -8 3 10 0 40 -3 30 -10 59 -15 65 -5 5
-9 21 -9 36 0 15 -4 31 -10 34 -5 3 -10 19 -10 36 0 16 -4 29 -10 29 -5 0 -10
13 -10 29 0 17 -4 33 -10 36 -5 3 -10 15 -10 25 0 10 -4 22 -10 25 -6 4 -10
-26 -10 -84z"/>
<path d="M180 1549 c0 -17 4 -28 10 -24 6 3 10 17 10 31 0 13 -4 24 -10 24 -5
0 -10 -14 -10 -31z"/>
<path d="M200 1201 c0 -25 6 -27 13 -6 4 8 2 17 -3 20 -6 4 -10 -3 -10 -14z"/>
<path d="M6840 1188 c0 -9 4 -28 10 -42 6 -17 6 -26 0 -26 -6 0 -10 -13 -10
-30 0 -16 5 -30 10 -30 6 0 10 -22 10 -49 0 -28 5 -53 10 -56 6 -3 10 -28 10
-56 0 -27 -4 -49 -10 -49 -5 0 -10 -6 -10 -14 0 -8 -6 -17 -12 -19 -8 -4 -4
-8 10 -12 23 -8 31 -48 12 -60 -5 -3 -10 -42 -10 -85 0 -53 -4 -80 -12 -83 -9
-4 -9 -8 -3 -14 14 -11 35 -74 35 -102 0 -16 -4 -21 -15 -18 -11 5 -13 0 -8
-26 3 -18 9 -34 13 -37 12 -9 20 -55 11 -68 -4 -7 -14 -12 -22 -10 -8 2 -14
-5 -14 -16 0 -11 -6 -21 -13 -24 -6 -2 -12 1 -12 7 0 6 -4 11 -10 11 -5 0 -10
-9 -10 -20 0 -11 5 -20 10 -20 6 0 10 -15 10 -34 0 -19 5 -38 10 -41 6 -3 10
-20 10 -37 0 -27 -3 -30 -25 -26 -15 3 -30 -1 -39 -11 -18 -21 -14 -65 7 -69
13 -3 17 4 17 27 0 17 5 31 10 31 6 0 10 -13 10 -30 0 -27 3 -30 30 -30 17 0
30 -4 30 -10 0 -5 20 -10 45 -10 38 0 45 3 50 23 7 25 -19 331 -34 417 -19
100 -37 277 -46 440 -2 47 -9 119 -14 160 -5 41 -7 78 -5 82 6 9 65 -1 81 -14
10 -8 49 6 63 23 3 3 20 9 38 13 17 3 46 9 64 12 30 6 65 30 57 38 -2 2 -79 6
-172 8 -151 3 -167 1 -167 -14z m40 -932 c0 -3 -4 -8 -10 -11 -5 -3 -10 -1
-10 4 0 6 5 11 10 11 6 0 10 -2 10 -4z"/>
<path d="M212 1130 c0 -19 2 -27 5 -17 2 9 2 25 0 35 -3 9 -5 1 -5 -18z"/>
<path d="M0 576 c0 -74 4 -136 9 -138 5 -1 11 -39 14 -83 11 -142 41 -281 67
-309 12 -13 27 53 22 97 -5 44 18 52 36 12 17 -37 36 -32 28 8 -4 17 -9 47
-13 65 -3 18 -9 35 -14 38 -5 3 -9 16 -9 29 0 13 -4 27 -10 30 -5 3 -10 22
-10 41 0 19 -4 34 -10 34 -5 0 -10 13 -10 29 0 17 -4 33 -10 36 -5 3 -10 19
-10 35 0 16 -4 32 -10 35 -5 3 -10 19 -10 35 0 16 -4 32 -10 35 -5 3 -10 14
-10 24 0 18 -28 81 -36 81 -2 0 -4 -60 -4 -134z"/>
<path d="M1160 230 c0 -5 5 -10 10 -10 6 0 10 5 10 10 0 6 -4 10 -10 10 -5 0
-10 -4 -10 -10z"/>
<path d="M1266 211 c-3 -4 -20 -11 -37 -15 -27 -5 -29 -7 -16 -21 9 -8 21 -15
28 -15 13 0 49 38 49 52 0 11 -17 10 -24 -1z"/>
<path d="M180 111 c0 -25 24 -111 32 -111 4 0 8 22 8 50 0 39 -4 52 -20 60
-12 6 -20 7 -20 1z"/>
</g>
</svg>
