<?xml version="1.0" encoding="UTF-8" standalone="no"?>
<svg width="16px" height="12px" viewBox="0 0 16 12" version="1.1" xmlns="http://www.w3.org/2000/svg" xmlns:xlink="http://www.w3.org/1999/xlink" xmlns:sketch="http://www.bohemiancoding.com/sketch/ns">
    <!-- Generator: Sketch 3.4.2 (15855) - http://www.bohemiancoding.com/sketch -->
    <title>Group</title>
    <desc>Created with Sketch.</desc>
    <defs></defs>
    <g id="Page-1" stroke="none" stroke-width="1" fill="none" fill-rule="evenodd" sketch:type="MSPage">
        <g id="Group" sketch:type="MSLayerGroup" transform="translate(8.000000, 5.920000) scale(1, -1) translate(-8.000000, -5.920000) " fill="#000000">
            <path d="M9.2,11.8026667 C9.14133333,11.7866667 9.072,11.7546667 9.04533333,11.728 C9.01333333,11.7013333 8.94933333,11.68 8.896,11.68 C8.848,11.68 8.784,11.648 8.76266667,11.616 C8.736,11.5786667 8.60266667,11.44 8.464,11.312 L8.21333333,11.072 L8.06933333,11.2106667 C7.68,11.5733333 7.30133333,11.616 6.96533333,11.3386667 C6.71466667,11.1306667 6.432,10.5546667 6.36266667,10.1066667 C6.304,9.696 6.336,9.72266667 5.904,9.74933333 L5.51466667,9.77066667 L5.30133333,9.488 C5.184,9.328 5.008,9.03466667 4.912,8.82666667 C4.81066667,8.624 4.69866667,8.38933333 4.66133333,8.30933333 C4.61866667,8.23466667 4.58666667,8.13333333 4.58666667,8.08 C4.58666667,7.872 4.42666667,7.70133333 4.07466667,7.52533333 C3.872,7.424 3.66933333,7.312 3.62666667,7.28 C3.44,7.14133333 3.14666667,7.08266667 2.98133333,7.14666667 C2.76266667,7.23733333 2.66666667,7.184 2.66666667,6.97066667 C2.66666667,6.78933333 2.57066667,6.66133333 2.34666667,6.53866667 C2.288,6.50666667 2.144,6.41066667 2.02133333,6.32 C1.81333333,6.17066667 1.76,6.16 1.33866667,6.15466667 C0.629333333,6.14933333 0.405333333,6.096 0.186666667,5.88266667 C0.00533333333,5.70666667 0,5.68533333 0,5.328 C0,5.04 0.032,4.89066667 0.133333333,4.672 C0.293333333,4.33066667 0.677333333,3.936 0.976,3.792 C1.42933333,3.584 1.58933333,3.52 1.68,3.52 C1.728,3.52 1.872,3.42933333 2,3.31733333 C2.12266667,3.21066667 2.416,3.024 2.64533333,2.912 C3.38666667,2.54933333 3.568,2.48 4.528,2.208 C4.576,2.192 4.58666667,2.13866667 4.56533333,2.03733333 C4.52266667,1.86133333 4.52266667,1.84 4.56533333,1.6 C4.69333333,0.938666667 5.648,0.325333333 6.8,0.16 C6.976,0.133333333 7.25333333,0.0906666667 7.41333333,0.0586666667 C7.57333333,0.032 8.384,0.00533333333 9.21066667,0.00533333333 C10.7093333,1.38344197e-16 10.7146667,1.38344197e-16 10.7946667,0.122666667 C10.9173333,0.293333333 11.9733333,1.39733333 12.768,2.18133333 C15.4666667,4.832 15.7066667,5.088 15.8026667,5.34933333 C15.824,5.39733333 15.872,5.44 15.92,5.44 C15.9786667,5.44 16,5.504 16,5.70666667 C16,5.90933333 15.9786667,5.97333333 15.92,5.97333333 C15.872,5.97333333 15.824,6.01066667 15.808,6.05333333 C15.776,6.128 15.3493333,6.464 15.12,6.592 C14.7786667,6.784 14.2506667,7.04 14.192,7.04 C14.1546667,7.04 14.0586667,7.072 13.984,7.10933333 C13.7653333,7.22133333 13.4933333,7.33866667 13.2053333,7.45066667 C12.704,7.63733333 12.6026667,7.808 12.432,8.74666667 C12.384,9.00266667 12.272,9.32266667 12.1493333,9.552 C11.8986667,10.0266667 11.3866667,10.1226667 10.9706667,9.776 C10.8853333,9.712 10.8,9.65333333 10.7733333,9.65333333 C10.72,9.65333333 10.6666667,9.792 10.6666667,9.93066667 C10.6666667,10.0426667 10.544,10.4693333 10.4266667,10.7466667 C10.032,11.7013333 9.76,11.936 9.2,11.8026667 L9.2,11.8026667 Z M9.58933333,11.04 C9.65333333,10.9546667 9.70666667,10.8533333 9.70666667,10.8106667 C9.70666667,10.7733333 9.73333333,10.7146667 9.76,10.688 C9.856,10.592 10.1333333,9.52533333 10.1706667,9.11466667 L10.1973333,8.81066667 L9.96266667,8.73066667 C9.83466667,8.688 9.616,8.61866667 9.46666667,8.58133333 C9.17866667,8.50666667 7.62666667,8.43733333 7.14666667,8.48 L6.85333333,8.50666667 L6.848,8.85333333 C6.84266667,9.04533333 6.87466667,9.328 6.912,9.48266667 C6.95466667,9.63733333 6.98666667,9.82933333 6.98666667,9.90933333 C6.98666667,10.1066667 7.14666667,10.5546667 7.28533333,10.7413333 C7.392,10.8906667 7.39733333,10.8906667 7.536,10.8053333 C7.61066667,10.752 7.77066667,10.5813333 7.89333333,10.4213333 C8.01066667,10.2613333 8.14933333,10.1333333 8.192,10.1333333 C8.29866667,10.1333333 8.58666667,10.336 8.58666667,10.4106667 C8.58666667,10.5706667 9.24266667,11.2 9.41333333,11.2 C9.44533333,11.2 9.52533333,11.1306667 9.58933333,11.04 L9.58933333,11.04 Z M11.6586667,9.08266667 C11.7386667,8.896 11.84,8.45866667 11.936,7.89333333 C11.9626667,7.75466667 12.064,7.53066667 12.176,7.36533333 C12.2826667,7.21066667 12.3626667,7.06666667 12.352,7.04533333 C12.336,7.024 12.3466667,6.91733333 12.368,6.81066667 C12.448,6.46933333 12.3733333,6.432 11.616,6.39466667 C11.2586667,6.37866667 10.72,6.33066667 10.432,6.29333333 C9.968,6.22933333 9.824,6.23466667 9.312,6.30933333 C8.98666667,6.35733333 8.56533333,6.41066667 8.37333333,6.42666667 C8.176,6.44266667 7.99466667,6.48533333 7.952,6.53333333 C7.87733333,6.60266667 7.89866667,6.61333333 8.12266667,6.61333333 C8.4,6.61333333 9.024,6.69866667 9.38666667,6.784 C9.52,6.816 9.712,6.85866667 9.81333333,6.88 C10.16,6.96 10.592,7.136 10.96,7.35466667 C11.1786667,7.48266667 11.4666667,7.872 11.4666667,8.04266667 C11.4666667,8.128 11.3813333,8.28266667 11.248,8.43733333 L11.0293333,8.69866667 L11.1306667,8.88533333 C11.184,8.992 11.248,9.12 11.28,9.17866667 C11.3706667,9.35466667 11.5626667,9.30666667 11.6586667,9.08266667 L11.6586667,9.08266667 Z M6.04266667,8.65066667 C6.12266667,8.41066667 6.12266667,8.39466667 6.016,8.28266667 C5.952,8.21333333 5.87733333,8.16 5.84533333,8.16 C5.81333333,8.16 5.70133333,8.05866667 5.58933333,7.936 C5.36533333,7.68533333 5.328,7.46666667 5.46666667,7.26933333 C5.55733333,7.136 6.03733333,6.88 6.18666667,6.88 C6.32,6.88 6.45333333,6.82666667 6.45333333,6.768 C6.45333333,6.69866667 5.99466667,6.71466667 5.6,6.8 C5.408,6.84266667 5.10933333,6.88 4.93333333,6.88 C4.50666667,6.88 4.43733333,6.93333333 4.64,7.08266667 C4.72533333,7.14666667 4.816,7.2 4.84266667,7.2 C4.91733333,7.2 5.05066667,7.376 5.08266667,7.52 C5.14666667,7.81866667 5.44533333,8.512 5.66933333,8.896 C5.76533333,9.06133333 5.78133333,9.06666667 5.86666667,8.98666667 C5.92,8.93866667 6,8.78933333 6.04266667,8.65066667 L6.04266667,8.65066667 Z M10.6613333,8.13866667 C10.7626667,8.016 10.6666667,7.89333333 10.3253333,7.73866667 C9.34933333,7.28 7.536,7.14666667 6.53333333,7.45066667 C6.16533333,7.56266667 6.14933333,7.59466667 6.39466667,7.72266667 C6.592,7.82933333 6.69333333,7.83466667 7.82933333,7.83466667 C8.544,7.83466667 9.14133333,7.856 9.26933333,7.888 C9.38666667,7.92 9.58933333,7.968 9.712,7.99466667 C9.84,8.02133333 10.0426667,8.08 10.16,8.128 C10.4266667,8.22933333 10.5813333,8.23466667 10.6613333,8.13866667 L10.6613333,8.13866667 Z M13.536,6.64 C13.6266667,6.59733333 13.7866667,6.528 13.8826667,6.49066667 C14.544,6.21333333 15.2533333,5.78666667 15.2533333,5.664 C15.2533333,5.53066667 14.3626667,4.58666667 13.3866667,3.68 C12.5013333,2.85866667 11.376,1.72266667 10.8106667,1.08266667 C10.432,0.650666667 10.4213333,0.645333333 10.176,0.64 C10.0373333,0.64 9.90933333,0.666666667 9.888,0.698666667 C9.80266667,0.842666667 10.288,1.53066667 10.9066667,2.13333333 C11.3386667,2.56 12.2666667,3.59466667 12.2666667,3.65333333 C12.2666667,3.67466667 12.3413333,3.78133333 12.4266667,3.89333333 C12.5173333,4.00533333 12.5866667,4.128 12.5866667,4.17066667 C12.5866667,4.21333333 12.6133333,4.272 12.6506667,4.30933333 C12.8426667,4.50133333 13.0666667,5.46666667 13.0666667,6.08 C13.056,6.84266667 13.0453333,6.78933333 13.216,6.752 C13.296,6.73066667 13.44,6.68266667 13.536,6.64 L13.536,6.64 Z M7.216,6.64860606 C7.12,6.61224242 6.96,6.61224242 6.86933333,6.64860606 C6.77333333,6.6849697 6.848,6.72133333 7.04,6.72133333 C7.232,6.72133333 7.30666667,6.6849697 7.216,6.64860606 L7.216,6.64860606 Z M4.21333333,6.32533333 C4.256,6.31466667 4.384,6.29333333 4.496,6.26666667 C4.736,6.21866667 4.77333333,6.17066667 4.68266667,6.02666667 C4.62933333,5.94133333 4.62933333,5.89866667 4.68266667,5.81333333 C4.816,5.59466667 4.62933333,5.536 4.28266667,5.69066667 C3.984,5.824 3.78666667,6.02133333 3.78666667,6.18666667 C3.78666667,6.37333333 3.83466667,6.416 4,6.37333333 C4.07466667,6.35733333 4.17066667,6.336 4.21333333,6.32533333 L4.21333333,6.32533333 Z M5.33333333,6.09066667 C5.33333333,6 5.23733333,5.86666667 5.17866667,5.86666667 C5.15733333,5.86666667 5.14133333,5.94133333 5.136,6.02666667 C5.12533333,6.15466667 5.14666667,6.18666667 5.22666667,6.18666667 C5.296,6.18666667 5.33333333,6.14933333 5.33333333,6.09066667 L5.33333333,6.09066667 Z M2.66666667,5.86133333 C2.66666667,5.73866667 2.88533333,5.33333333 3.03466667,5.184 C3.33866667,4.88 3.59466667,4.78933333 4.13866667,4.79466667 C4.57066667,4.79466667 4.66666667,4.81066667 4.96533333,4.95466667 C5.29066667,5.10933333 5.62133333,5.376 5.84533333,5.66933333 C5.89866667,5.744 6.02133333,5.81866667 6.11733333,5.84 C6.272,5.872 6.29333333,5.86133333 6.32,5.72266667 C6.36266667,5.53066667 6.49066667,5.2 6.62933333,4.93333333 C6.79466667,4.608 7.024,4.36266667 7.344,4.176 C7.61066667,4.01066667 7.664,4 8.096,4 C8.40533333,4 8.61333333,4.02666667 8.71466667,4.08 C8.79466667,4.12266667 8.896,4.16 8.93333333,4.16 C9.024,4.16 9.49866667,4.62933333 9.60533333,4.82666667 C9.65333333,4.91733333 9.70666667,5.07733333 9.728,5.184 C9.77066667,5.424 9.872,5.488 10.2506667,5.52 C10.7466667,5.568 12.2666667,5.61066667 12.3413333,5.584 C12.4,5.55733333 12.4,5.49866667 12.32,5.21066667 C12.2666667,5.024 12.1973333,4.82666667 12.1706667,4.768 C12.1386667,4.71466667 12.1013333,4.62933333 12.0853333,4.58666667 C11.9786667,4.30933333 11.3386667,3.504 10.7146667,2.87466667 C9.94666667,2.09066667 9.6,1.70666667 9.54133333,1.57333333 C9.51466667,1.51466667 9.472,1.42933333 9.44533333,1.38666667 C9.344,1.216 9.26933333,1.01866667 9.232,0.848 L9.19466667,0.666666667 L8.42666667,0.656 C8,0.645333333 7.536,0.666666667 7.38666667,0.698666667 C7.24266667,0.730666667 7.00266667,0.773333333 6.85333333,0.794666667 C6.06933333,0.906666667 5.22666667,1.38133333 5.22666667,1.70666667 L5.22666667,1.856 L5.50933333,1.74933333 C5.80266667,1.63733333 6.016,1.584 6.544,1.48266667 C6.87466667,1.41866667 7.024,1.42933333 8.05333333,1.6 C8.36266667,1.65333333 8.88,1.83466667 9.12,1.97866667 C9.16266667,2.00533333 9.248,2.048 9.312,2.07466667 C9.52533333,2.17066667 10,2.656 10.0746667,2.85333333 C10.1813333,3.14666667 10.0746667,3.472 9.80266667,3.69066667 C9.61066667,3.84 9.552,3.856 9.2,3.86133333 C8.93866667,3.86133333 8.752,3.83466667 8.61866667,3.77066667 C8.37333333,3.65333333 8.144,3.55733333 7.84,3.44 C7.70666667,3.392 7.53066667,3.31733333 7.45066667,3.27466667 C7.36533333,3.232 7.264,3.2 7.22666667,3.2 C7.18933333,3.2 7.088,3.168 7.00266667,3.12533333 C6.77333333,3.01333333 6.32,2.88 6.17066667,2.88 C6.10133333,2.88 5.94666667,2.848 5.82933333,2.80533333 C5.57866667,2.72 4.992,2.69866667 4.848,2.77333333 C4.79466667,2.80533333 4.64533333,2.848 4.52266667,2.87466667 C4.256,2.93333333 3.97866667,3.024 3.77066667,3.12533333 C3.68533333,3.168 3.57866667,3.2 3.53066667,3.2 C3.48266667,3.2 3.392,3.23733333 3.33866667,3.28 C3.28,3.32266667 3.19466667,3.36 3.14133333,3.36 C3.09333333,3.36 3.024,3.39733333 2.98666667,3.44 C2.94933333,3.48266667 2.88533333,3.52 2.84266667,3.52 C2.76266667,3.52 2.464,3.71733333 2.36266667,3.84 C2.32,3.89333333 2.304,3.99466667 2.32533333,4.128 C2.37333333,4.416 2.368,5.39733333 2.32,5.54133333 C2.29333333,5.632 2.31466667,5.696 2.40533333,5.792 C2.528,5.92533333 2.66666667,5.96266667 2.66666667,5.86133333 L2.66666667,5.86133333 Z M8.36266667,5.728 C8.50666667,5.70666667 8.53333333,5.68 8.50666667,5.61066667 C8.42133333,5.408 8.42133333,5.27466667 8.50133333,5.14666667 C8.58133333,5.02933333 8.58133333,5.008 8.50666667,4.98133333 C8.37866667,4.928 7.88266667,5.12533333 7.69066667,5.30133333 C7.504,5.472 7.392,5.68 7.44,5.76 C7.46666667,5.808 7.97333333,5.78666667 8.36266667,5.728 L8.36266667,5.728 Z M9.216,5.42933333 C9.19466667,5.21066667 9.088,5.17866667 9.056,5.38666667 C9.02933333,5.56266667 9.04533333,5.6 9.15733333,5.6 C9.21066667,5.6 9.22666667,5.54666667 9.216,5.42933333 L9.216,5.42933333 Z M1.696,4.90133333 C1.712,4.23466667 1.68533333,4.18133333 1.43466667,4.29333333 C0.976,4.50666667 0.826666667,4.63466667 0.688,4.944 C0.48,5.40266667 0.538666667,5.47733333 1.12,5.504 C1.68533333,5.53066667 1.68,5.54133333 1.696,4.90133333 L1.696,4.90133333 Z M9.35466667,3.22133333 C9.66933333,3.09866667 9.02933333,2.55466667 8.32,2.336 C7.80266667,2.176 7.088,2.064 6.75733333,2.096 C6.58666667,2.112 6.432,2.13866667 6.416,2.15466667 C6.352,2.21866667 6.52266667,2.34666667 6.71466667,2.37866667 C7.03466667,2.432 7.41866667,2.55466667 7.94666667,2.784 C8.048,2.82666667 8.21866667,2.896 8.32,2.944 C8.42133333,2.98666667 8.592,3.06133333 8.69333333,3.10933333 C8.98133333,3.23733333 9.20533333,3.28 9.35466667,3.22133333 L9.35466667,3.22133333 Z" id="Shape" sketch:type="MSShapeGroup"></path>
        </g>
    </g>
</svg>